# xmcd
#
# Track frame offsets:
#	150
#	12372
#	28952
#	48447
#	68890
#	89227
#	100375
#	110385
#	124147
#	146562
#	164755
#	183960
#
# Disc length: 2628 seconds
#
# Revision: 1
# Processed by: cddbd v1.5.2PL0 Copyright (c) Steve Scherf et al.
# Submitted via: audiograbber 1.83.01
#
DISCID=b10a420c
DTITLE=Larry Sasser - Sassy Country
DYEAR=1995
DGENRE=Country
TTITLE0=Sasy Frassin´
TTITLE1=Always On My Mind
TTITLE2=Take Me As I Am
TTITLE3=Are You Sure
TTITLE4=Dogwood Trail
TTITLE5=Real Country
TTITLE6=Nashwood
TTITLE7=Mercy, Mercy
TTITLE8=Healing Hands Of Time
TTITLE9=Gardenia Waltz
TTITLE10=Cold, Cold Heart
TTITLE11=Cold, Cold Heart
EXTD=
EXTT0=
EXTT1=
EXTT2=
EXTT3=
EXTT4=
EXTT5=
EXTT6=
EXTT7=
EXTT8=
EXTT9=
EXTT10=
EXTT11=
PLAYORDER=
